<svg xmlns="http://www.w3.org/2000/svg" width="512" height="512" viewBox="0 0 135.467 135.467">
    <g fill-rule="evenodd">
        <path d="M120.918 109.676a67.733 67.733 0 0 1-95.113 11.253 67.733 67.733 0 0 1-11.28-95.11 67.733 67.733 0 0 1 95.107-11.305 67.733 67.733 0 0 1 11.332 95.104"/>
        <path fill="#fff" d="M115.932 105.744a61.383 61.383 0 0 1-86.196 10.198A61.383 61.383 0 0 1 19.514 29.75a61.383 61.383 0 0 1 86.19-10.245 61.383 61.383 0 0 1 10.27 86.187"/>
        <path d="M91.5 31.22a12.7 12.7 0 0 0-9.93 4.84 12.7 12.7 0 0 0 2.114 17.835 12.7 12.7 0 0 0 17.834-2.11l.01-.012A12.7 12.7 0 0 0 99.4 33.942a12.7 12.7 0 0 0-7.9-2.721zm-47.624 0a12.7 12.7 0 0 0-9.931 4.84 12.7 12.7 0 0 0 2.114 17.835 12.7 12.7 0 0 0 17.834-2.11l.01-.012a12.7 12.7 0 0 0-2.127-17.831 12.7 12.7 0 0 0-7.9-2.721z"/>
        <path fill="#b3b3b3" d="M91.516 35.454a8.467 8.467 0 0 0-6.62 3.227 8.467 8.467 0 0 0 1.409 11.89 8.467 8.467 0 0 0 11.889-1.407l.006-.008a8.467 8.467 0 0 0-1.417-11.888 8.467 8.467 0 0 0-5.267-1.814zm-47.626 0a8.467 8.467 0 0 0-6.62 3.227 8.467 8.467 0 0 0 1.41 11.89 8.467 8.467 0 0 0 11.889-1.407l.006-.008a8.467 8.467 0 0 0-1.417-11.888 8.467 8.467 0 0 0-5.267-1.814z"/>
        <path d="M43.876 78.846a12.7 12.7 0 0 0-9.931 4.84 12.7 12.7 0 0 0 2.114 17.834 12.7 12.7 0 0 0 17.834-2.11l.01-.012a12.7 12.7 0 0 0-2.127-17.831 12.7 12.7 0 0 0-7.9-2.721z"/>
        <path fill="#b3b3b3" d="M43.89 83.08a8.467 8.467 0 0 0-6.62 3.226 8.467 8.467 0 0 0 1.41 11.89 8.467 8.467 0 0 0 11.889-1.407l.006-.008a8.467 8.467 0 0 0-1.417-11.888 8.467 8.467 0 0 0-5.267-1.814z"/>
        <path d="M91.5 78.846a12.7 12.7 0 0 0-9.93 4.84 12.7 12.7 0 0 0 2.114 17.834 12.7 12.7 0 0 0 17.834-2.11l.01-.012A12.7 12.7 0 0 0 99.4 81.567a12.7 12.7 0 0 0-7.9-2.721z"/>
        <path fill="#b3b3b3" d="M91.516 83.08a8.467 8.467 0 0 0-6.62 3.226 8.467 8.467 0 0 0 1.409 11.89 8.467 8.467 0 0 0 11.889-1.407l.006-.008a8.467 8.467 0 0 0-1.417-11.888 8.467 8.467 0 0 0-5.267-1.814z"/>
        <path d="M67.688 55.033a12.7 12.7 0 0 0-9.93 4.84 12.7 12.7 0 0 0 2.114 17.834 12.7 12.7 0 0 0 17.833-2.11l.01-.011a12.7 12.7 0 0 0-2.126-17.832 12.7 12.7 0 0 0-7.9-2.72z"/>
        <path fill="#b3b3b3" d="M67.703 59.267a8.467 8.467 0 0 0-6.62 3.226 8.467 8.467 0 0 0 1.41 11.89 8.467 8.467 0 0 0 11.888-1.407l.007-.008a8.467 8.467 0 0 0-1.418-11.887 8.467 8.467 0 0 0-5.267-1.814z"/>
    </g>
</svg>
