<svg xmlns="http://www.w3.org/2000/svg" width="512" height="512" viewBox="0 0 135.467 135.467">
    <g>
        <path fill="#00112b" fill-rule="evenodd" d="M0 0h135.467v135.467H0z"/>
        <path fill="#162d50" fill-rule="evenodd" d="M4.233 4.234h127v127h-127z"/>
        <g fill="#f60" stroke="#1a1a1a" stroke-width="1.881">
            <path fill-rule="evenodd" stroke-linecap="round" stroke-linejoin="round" d="M74.381 234.51a8.467 8.467 0 0 1-11.889 1.406 8.467 8.467 0 0 1-1.41-11.889 8.467 8.467 0 0 1 11.889-1.413 8.467 8.467 0 0 1 1.416 11.888" transform="matrix(1.1339 0 0 1.13398 -9.07 -192.255)"/>
            <path d="M67.733 214.672s-8.34-18.387-8.34-27.551c0-4.803 2.966-10.099 8.34-10.115 5.375-.016 8.34 5.312 8.34 10.115 0 9.164-8.34 27.551-8.34 27.551zm0 29.189s-8.34 18.387-8.34 27.551c0 4.803 2.966 10.1 8.34 10.115 5.375.017 8.34-5.312 8.34-10.115 0-9.164-8.34-27.551-8.34-27.551zm14.595-14.594s18.387-8.34 27.551-8.34c4.803 0 10.099 2.965 10.115 8.34.016 5.374-5.312 8.34-10.115 8.34-9.164 0-27.551-8.34-27.551-8.34zm-29.189 0s-18.387-8.34-27.551-8.34c-4.803 0-10.1 2.965-10.115 8.34-.017 5.374 5.312 8.34 10.115 8.34 9.164 0 27.551-8.34 27.551-8.34zm4.275-10.32s-18.9-7.104-25.38-13.585c-3.395-3.396-5.044-9.237-1.255-13.05 3.79-3.811 9.654-2.14 13.05 1.256 6.48 6.48 13.585 25.379 13.585 25.379zm20.639 20.639s7.104 18.9 13.585 25.38c3.396 3.395 9.237 5.044 13.05 1.255 3.811-3.79 2.14-9.654-1.256-13.05-6.48-6.48-25.379-13.585-25.379-13.585zm19.953-49.34c-2.362.363-4.671 1.625-6.37 3.322-6.48 6.48-13.583 25.38-13.583 25.38s18.899-7.104 25.379-13.585c3.395-3.396 5.067-9.262 1.255-13.05-1.905-1.895-4.32-2.43-6.681-2.067zm-40.592 49.34s-18.9 7.104-25.38 13.585c-3.395 3.396-5.044 9.238-1.255 13.05 3.79 3.811 9.654 2.14 13.05-1.256 6.48-6.48 13.585-25.379 13.585-25.379z" transform="matrix(1.1339 0 0 1.13398 -9.07 -192.255)"/>
        </g>
    </g>
</svg>
